<mxfile host="Electron" agent="Mozilla/5.0 (X11; Linux x86_64) AppleWebKit/537.36 (KHTML, like Gecko) draw.io/26.0.16 Chrome/132.0.6834.196 Electron/34.2.0 Safari/537.36" version="26.0.16">
  <diagram name="Page-1" id="PJgCdanIaGpkUApIPNjL">
    <mxGraphModel dx="5331" dy="2554" grid="1" gridSize="10" guides="1" tooltips="1" connect="1" arrows="1" fold="1" page="1" pageScale="1" pageWidth="827" pageHeight="1169" math="0" shadow="0">
      <root>
        <mxCell id="0" />
        <mxCell id="1" parent="0" />
        <mxCell id="CgnWM67gMF39QZWleoJr-238" value="" style="rounded=0;whiteSpace=wrap;html=1;fillColor=none;strokeWidth=4;" parent="1" vertex="1">
          <mxGeometry x="-40" y="430" width="4010" height="1526" as="geometry" />
        </mxCell>
        <mxCell id="CgnWM67gMF39QZWleoJr-242" value="" style="endArrow=classic;html=1;rounded=0;strokeWidth=4;endFill=1;startArrow=none;startFill=0;endSize=28;targetPerimeterSpacing=0;exitX=0;exitY=0.465;exitDx=0;exitDy=0;exitPerimeter=0;jumpStyle=arc;jumpSize=19;entryX=0.002;entryY=0.481;entryDx=0;entryDy=0;entryPerimeter=0;" parent="1" source="CgnWM67gMF39QZWleoJr-238" target="CgnWM67gMF39QZWleoJr-246" edge="1">
          <mxGeometry width="50" height="50" relative="1" as="geometry">
            <mxPoint x="-10" y="1141.57" as="sourcePoint" />
            <mxPoint x="590" y="1142" as="targetPoint" />
          </mxGeometry>
        </mxCell>
        <mxCell id="CgnWM67gMF39QZWleoJr-243" value="" style="endArrow=classic;html=1;rounded=0;strokeWidth=4;endFill=1;startArrow=none;startFill=0;endSize=28;entryX=0.639;entryY=1.003;entryDx=0;entryDy=0;entryPerimeter=0;sourcePerimeterSpacing=0;exitX=0.117;exitY=1.001;exitDx=0;exitDy=0;exitPerimeter=0;jumpStyle=arc;jumpSize=22;" parent="1" target="CgnWM67gMF39QZWleoJr-285" edge="1">
          <mxGeometry width="50" height="50" relative="1" as="geometry">
            <mxPoint x="309.63070000000016" y="1946.4660000000001" as="sourcePoint" />
            <mxPoint x="330.0015600000001" y="1058.4699999999998" as="targetPoint" />
          </mxGeometry>
        </mxCell>
        <mxCell id="CgnWM67gMF39QZWleoJr-245" value="" style="group;fillColor=#B3B3B3;" parent="1" vertex="1" connectable="0">
          <mxGeometry x="590.0015600000002" y="568.9999999999998" width="70" height="1185" as="geometry" />
        </mxCell>
        <mxCell id="CgnWM67gMF39QZWleoJr-246" value="" style="rounded=0;whiteSpace=wrap;html=1;fillColor=none;strokeWidth=4;" parent="CgnWM67gMF39QZWleoJr-245" vertex="1">
          <mxGeometry width="70" height="1185" as="geometry" />
        </mxCell>
        <mxCell id="V3BKGYpLejdxwRRi2pDn-1" value="" style="triangle;whiteSpace=wrap;html=1;direction=north;strokeWidth=4;fillColor=#808080;" parent="CgnWM67gMF39QZWleoJr-245" vertex="1">
          <mxGeometry x="1" y="1120.53" width="67" height="64.47" as="geometry" />
        </mxCell>
        <mxCell id="CgnWM67gMF39QZWleoJr-248" value="" style="group;fillColor=#B3B3B3;" parent="1" vertex="1" connectable="0">
          <mxGeometry x="1951.0015600000002" y="568.9999999999998" width="70" height="1185" as="geometry" />
        </mxCell>
        <mxCell id="CgnWM67gMF39QZWleoJr-249" value="" style="rounded=0;whiteSpace=wrap;html=1;fillColor=none;strokeWidth=4;" parent="CgnWM67gMF39QZWleoJr-248" vertex="1">
          <mxGeometry x="-1" width="71" height="1185" as="geometry" />
        </mxCell>
        <mxCell id="V3BKGYpLejdxwRRi2pDn-5" value="" style="triangle;whiteSpace=wrap;html=1;direction=north;strokeWidth=4;fillColor=#808080;" parent="CgnWM67gMF39QZWleoJr-248" vertex="1">
          <mxGeometry x="1" y="1120.53" width="67" height="64.47" as="geometry" />
        </mxCell>
        <mxCell id="CgnWM67gMF39QZWleoJr-251" value="&lt;font face=&quot;MS Mincho, ＭＳ 明朝&quot; style=&quot;font-size: 64px;&quot;&gt;S0/S1&lt;/font&gt;" style="edgeLabel;html=1;align=center;verticalAlign=middle;resizable=0;points=[];labelBackgroundColor=none;" parent="1" vertex="1" connectable="0">
          <mxGeometry x="500.0004446837929" y="1915.938928205588" as="geometry">
            <mxPoint x="80" y="-69" as="offset" />
          </mxGeometry>
        </mxCell>
        <mxCell id="CgnWM67gMF39QZWleoJr-259" value="&lt;span style=&quot;font-family: &amp;quot;MS Mincho&amp;quot;, &amp;quot;ＭＳ 明朝&amp;quot;; font-size: 62px; text-wrap-mode: nowrap;&quot;&gt;MissHandle&lt;/span&gt;" style="rounded=1;whiteSpace=wrap;html=1;fillColor=none;strokeWidth=4;shadow=0;glass=0;autosize=0;resizeWidth=0;imageHeight=24;imageAspect=1;perimeter=rectanglePerimeter;arcSize=21;" parent="1" vertex="1">
          <mxGeometry x="2570.99156" y="1139.4299999999998" width="422" height="195" as="geometry" />
        </mxCell>
        <mxCell id="CgnWM67gMF39QZWleoJr-260" value="&lt;span style=&quot;font-family: &amp;quot;MS Mincho&amp;quot;, &amp;quot;ＭＳ 明朝&amp;quot;; font-size: 62px; text-wrap-mode: nowrap;&quot;&gt;MSHRMatch&lt;/span&gt;" style="rounded=1;whiteSpace=wrap;html=1;fillColor=none;strokeWidth=4;shadow=0;glass=0;autosize=0;resizeWidth=0;imageHeight=24;imageAspect=1;perimeter=rectanglePerimeter;arcSize=21;" parent="1" vertex="1">
          <mxGeometry x="2570.99156" y="1539.5299999999997" width="422" height="195" as="geometry" />
        </mxCell>
        <mxCell id="CgnWM67gMF39QZWleoJr-274" value="&lt;font face=&quot;MS Mincho, ＭＳ 明朝&quot; style=&quot;font-size: 64px;&quot;&gt;S1/S2&lt;/font&gt;" style="edgeLabel;html=1;align=center;verticalAlign=middle;resizable=0;points=[];labelBackgroundColor=none;" parent="1" vertex="1" connectable="0">
          <mxGeometry x="1901.000444683793" y="1917.468928205588" as="geometry">
            <mxPoint x="80" y="-69" as="offset" />
          </mxGeometry>
        </mxCell>
        <mxCell id="CgnWM67gMF39QZWleoJr-277" value="" style="endArrow=classic;html=1;rounded=0;strokeWidth=4;endFill=1;startArrow=none;startFill=0;endSize=28;targetPerimeterSpacing=0;entryX=0.5;entryY=1;entryDx=0;entryDy=0;exitX=0.5;exitY=0;exitDx=0;exitDy=0;" parent="1" source="CgnWM67gMF39QZWleoJr-260" target="CgnWM67gMF39QZWleoJr-259" edge="1">
          <mxGeometry width="50" height="50" relative="1" as="geometry">
            <mxPoint x="2829.78156" y="1299.9999999999998" as="sourcePoint" />
            <mxPoint x="2829.78156" y="904.9999999999998" as="targetPoint" />
          </mxGeometry>
        </mxCell>
        <mxCell id="CgnWM67gMF39QZWleoJr-279" value="&lt;font face=&quot;MS Mincho,ＭＳ 明朝&quot; style=&quot;font-size: 48px;&quot;&gt;s2_mshr_hit_r&lt;/font&gt;" style="edgeLabel;html=1;align=center;verticalAlign=middle;resizable=0;points=[];labelBackgroundColor=default;" parent="1" vertex="1" connectable="0">
          <mxGeometry x="2780.79156" y="1409.9999999999993" as="geometry" />
        </mxCell>
        <mxCell id="CgnWM67gMF39QZWleoJr-285" value="&lt;font face=&quot;MS Mincho, ＭＳ 明朝&quot; style=&quot;font-size: 62px;&quot;&gt;Generate&lt;/font&gt;&lt;div&gt;&lt;font face=&quot;MS Mincho, ＭＳ 明朝&quot; style=&quot;font-size: 62px;&quot;&gt;ReadReq&lt;/font&gt;&lt;/div&gt;" style="rounded=1;whiteSpace=wrap;html=1;fillColor=none;strokeWidth=4;shadow=0;glass=0;autosize=0;resizeWidth=0;imageHeight=24;imageAspect=1;perimeter=rectanglePerimeter;arcSize=21;" parent="1" vertex="1">
          <mxGeometry x="40.001560000000154" y="678.4699999999998" width="422" height="195" as="geometry" />
        </mxCell>
        <mxCell id="CgnWM67gMF39QZWleoJr-286" value="" style="endArrow=classic;html=1;rounded=0;strokeWidth=4;endFill=1;startArrow=none;startFill=0;endSize=28;targetPerimeterSpacing=0;" parent="1" edge="1">
          <mxGeometry width="50" height="50" relative="1" as="geometry">
            <mxPoint x="250" y="678.47" as="sourcePoint" />
            <mxPoint x="250" y="430" as="targetPoint" />
          </mxGeometry>
        </mxCell>
        <mxCell id="CgnWM67gMF39QZWleoJr-287" value="&lt;font face=&quot;MS Mincho,ＭＳ 明朝&quot; style=&quot;font-size: 48px;&quot;&gt;read_req&lt;/font&gt;" style="edgeLabel;html=1;align=center;verticalAlign=middle;resizable=0;points=[];labelBackgroundColor=default;" parent="CgnWM67gMF39QZWleoJr-286" vertex="1" connectable="0">
          <mxGeometry x="0.2824" y="4" relative="1" as="geometry">
            <mxPoint x="4" y="37" as="offset" />
          </mxGeometry>
        </mxCell>
        <mxCell id="CgnWM67gMF39QZWleoJr-288" value="" style="endArrow=classic;html=1;rounded=0;strokeWidth=4;endFill=1;startArrow=none;startFill=0;endSize=28;targetPerimeterSpacing=0;entryX=0.284;entryY=1.002;entryDx=0;entryDy=0;entryPerimeter=0;" parent="1" edge="1">
          <mxGeometry width="50" height="50" relative="1" as="geometry">
            <mxPoint x="180.15" y="1139.61" as="sourcePoint" />
            <mxPoint x="179.99956000000012" y="873.4699999999997" as="targetPoint" />
          </mxGeometry>
        </mxCell>
        <mxCell id="CgnWM67gMF39QZWleoJr-289" value="&lt;font face=&quot;MS Mincho,ＭＳ 明朝&quot; style=&quot;font-size: 48px;&quot;&gt;vsetIdx&lt;/font&gt;" style="edgeLabel;html=1;align=center;verticalAlign=middle;resizable=0;points=[];labelBackgroundColor=default;" parent="CgnWM67gMF39QZWleoJr-288" vertex="1" connectable="0">
          <mxGeometry x="0.2824" y="4" relative="1" as="geometry">
            <mxPoint x="14" y="30" as="offset" />
          </mxGeometry>
        </mxCell>
        <mxCell id="CgnWM67gMF39QZWleoJr-290" value="" style="endArrow=classic;html=1;rounded=0;strokeWidth=4;endFill=1;startArrow=none;startFill=0;endSize=28;targetPerimeterSpacing=0;entryX=-0.004;entryY=0.364;entryDx=0;entryDy=0;entryPerimeter=0;" parent="1" target="CgnWM67gMF39QZWleoJr-246" edge="1">
          <mxGeometry width="50" height="50" relative="1" as="geometry">
            <mxPoint x="310" y="1000" as="sourcePoint" />
            <mxPoint x="590" y="1000" as="targetPoint" />
          </mxGeometry>
        </mxCell>
        <mxCell id="CgnWM67gMF39QZWleoJr-291" value="&lt;font face=&quot;MS Mincho,ＭＳ 明朝&quot; style=&quot;font-size: 48px;&quot;&gt;way&lt;/font&gt;" style="edgeLabel;html=1;align=center;verticalAlign=middle;resizable=0;points=[];labelBackgroundColor=default;" parent="1" vertex="1" connectable="0">
          <mxGeometry x="310.0033497418623" y="1060.0023016136315" as="geometry" />
        </mxCell>
        <mxCell id="CgnWM67gMF39QZWleoJr-292" value="&lt;font face=&quot;MS Mincho,ＭＳ 明朝&quot; style=&quot;font-size: 48px;&quot;&gt;FTQ_fetch_req&lt;/font&gt;" style="edgeLabel;html=1;align=center;verticalAlign=middle;resizable=0;points=[];labelBackgroundColor=default;" parent="1" vertex="1" connectable="0">
          <mxGeometry x="130.0045443413028" y="1181.9366995302114" as="geometry" />
        </mxCell>
        <mxCell id="CgnWM67gMF39QZWleoJr-293" value="" style="endArrow=classic;html=1;rounded=0;strokeWidth=4;endFill=1;startArrow=none;startFill=0;endSize=28;targetPerimeterSpacing=0;entryX=-0.003;entryY=0.71;entryDx=0;entryDy=0;entryPerimeter=0;" parent="1" target="CgnWM67gMF39QZWleoJr-246" edge="1">
          <mxGeometry width="50" height="50" relative="1" as="geometry">
            <mxPoint x="310" y="1408.47" as="sourcePoint" />
            <mxPoint x="539.6515600000002" y="1408.8200000000004" as="targetPoint" />
          </mxGeometry>
        </mxCell>
        <mxCell id="CgnWM67gMF39QZWleoJr-295" value="" style="endArrow=classic;html=1;rounded=0;strokeWidth=4;endFill=1;startArrow=none;startFill=0;endSize=28;targetPerimeterSpacing=0;entryX=0;entryY=0.5;entryDx=0;entryDy=0;exitX=1.003;exitY=0.85;exitDx=0;exitDy=0;exitPerimeter=0;" parent="1" source="CgnWM67gMF39QZWleoJr-246" target="CgnWM67gMF39QZWleoJr-298" edge="1">
          <mxGeometry width="50" height="50" relative="1" as="geometry">
            <mxPoint x="590" y="1460" as="sourcePoint" />
            <mxPoint x="800" y="1460" as="targetPoint" />
          </mxGeometry>
        </mxCell>
        <mxCell id="CgnWM67gMF39QZWleoJr-296" value="&lt;font face=&quot;MS Mincho,ＭＳ 明朝&quot; style=&quot;font-size: 48px;&quot;&gt;tlb_&lt;/font&gt;&lt;span style=&quot;font-size: 48px; font-family: &amp;quot;MS Mincho&amp;quot;, &amp;quot;ＭＳ 明朝&amp;quot;; background-color: light-dark(#ffffff, var(--ge-dark-color, #121212)); color: light-dark(rgb(0, 0, 0), rgb(255, 255, 255));&quot;&gt;excp&lt;/span&gt;" style="edgeLabel;html=1;align=center;verticalAlign=middle;resizable=0;points=[];labelBackgroundColor=default;" parent="1" vertex="1" connectable="0">
          <mxGeometry x="650.0033497418622" y="468.47230161363154" as="geometry">
            <mxPoint x="152" y="1106" as="offset" />
          </mxGeometry>
        </mxCell>
        <mxCell id="CgnWM67gMF39QZWleoJr-298" value="&lt;font face=&quot;MS Mincho, ＭＳ 明朝&quot;&gt;&lt;span style=&quot;font-size: 62px; text-wrap-mode: nowrap;&quot;&gt;Except&lt;/span&gt;&lt;/font&gt;" style="rounded=1;whiteSpace=wrap;html=1;fillColor=none;strokeWidth=4;shadow=0;glass=0;autosize=0;resizeWidth=0;imageHeight=24;imageAspect=1;perimeter=rectanglePerimeter;arcSize=21;" parent="1" vertex="1">
          <mxGeometry x="970.0015600000002" y="1479.9999999999998" width="422" height="195" as="geometry" />
        </mxCell>
        <mxCell id="CgnWM67gMF39QZWleoJr-299" value="" style="endArrow=classic;html=1;rounded=0;strokeWidth=4;endFill=1;startArrow=none;startFill=0;endSize=28;targetPerimeterSpacing=0;entryX=0;entryY=0.5;entryDx=0;entryDy=0;exitX=0.999;exitY=0.424;exitDx=0;exitDy=0;exitPerimeter=0;" parent="1" source="CgnWM67gMF39QZWleoJr-246" target="CgnWM67gMF39QZWleoJr-300" edge="1">
          <mxGeometry width="50" height="50" relative="1" as="geometry">
            <mxPoint x="660" y="1128" as="sourcePoint" />
            <mxPoint x="827" y="1167" as="targetPoint" />
          </mxGeometry>
        </mxCell>
        <mxCell id="CgnWM67gMF39QZWleoJr-300" value="&lt;span style=&quot;font-family: &amp;quot;MS Mincho&amp;quot;, &amp;quot;ＭＳ 明朝&amp;quot;; font-size: 62px; text-wrap-mode: nowrap;&quot;&gt;MSHRMatch&lt;/span&gt;" style="rounded=1;whiteSpace=wrap;html=1;fillColor=none;strokeWidth=4;shadow=0;glass=0;autosize=0;resizeWidth=0;imageHeight=24;imageAspect=1;perimeter=rectanglePerimeter;arcSize=21;" parent="1" vertex="1">
          <mxGeometry x="970.0015600000002" y="973.9999999999998" width="422" height="195" as="geometry" />
        </mxCell>
        <mxCell id="CgnWM67gMF39QZWleoJr-301" value="&lt;font face=&quot;MS Mincho, ＭＳ 明朝&quot;&gt;&lt;span style=&quot;font-size: 62px; text-wrap-mode: nowrap;&quot;&gt;DataHold&lt;/span&gt;&lt;/font&gt;" style="rounded=1;whiteSpace=wrap;html=1;fillColor=none;strokeWidth=4;shadow=0;glass=0;autosize=0;resizeWidth=0;imageHeight=24;imageAspect=1;perimeter=rectanglePerimeter;arcSize=21;" parent="1" vertex="1">
          <mxGeometry x="970.0015600000002" y="568.9999999999998" width="422" height="195" as="geometry" />
        </mxCell>
        <mxCell id="CgnWM67gMF39QZWleoJr-302" value="&lt;font face=&quot;MS Mincho,ＭＳ 明朝&quot; style=&quot;font-size: 48px;&quot;&gt;paddr&lt;/font&gt;" style="edgeLabel;html=1;align=center;verticalAlign=middle;resizable=0;points=[];labelBackgroundColor=default;" parent="1" vertex="1" connectable="0">
          <mxGeometry x="810.0033497418623" y="1150.0023016136315" as="geometry">
            <mxPoint x="-20" y="-86" as="offset" />
          </mxGeometry>
        </mxCell>
        <mxCell id="CgnWM67gMF39QZWleoJr-304" value="" style="endArrow=classic;html=1;rounded=0;strokeWidth=4;endFill=1;startArrow=none;startFill=0;endSize=28;exitX=1;exitY=0.936;exitDx=0;exitDy=0;exitPerimeter=0;sourcePerimeterSpacing=0;jumpStyle=arc;jumpSize=22;entryX=0.229;entryY=1.001;entryDx=0;entryDy=0;entryPerimeter=0;" parent="1" source="CgnWM67gMF39QZWleoJr-246" target="CgnWM67gMF39QZWleoJr-238" edge="1">
          <mxGeometry width="50" height="50" relative="1" as="geometry">
            <mxPoint x="130.0015599999997" y="1542.3549999999996" as="sourcePoint" />
            <mxPoint x="880" y="1960" as="targetPoint" />
            <Array as="points">
              <mxPoint x="880" y="1680" />
            </Array>
          </mxGeometry>
        </mxCell>
        <mxCell id="CgnWM67gMF39QZWleoJr-305" value="" style="endArrow=classic;html=1;rounded=0;strokeWidth=4;endFill=1;startArrow=none;startFill=0;endSize=28;targetPerimeterSpacing=0;entryX=0.5;entryY=1;entryDx=0;entryDy=0;exitX=0.304;exitY=1;exitDx=0;exitDy=0;exitPerimeter=0;" parent="1" source="CgnWM67gMF39QZWleoJr-238" target="CgnWM67gMF39QZWleoJr-298" edge="1">
          <mxGeometry width="50" height="50" relative="1" as="geometry">
            <mxPoint x="1180.1068999999998" y="1946.4700000000003" as="sourcePoint" />
            <mxPoint x="1182" y="1624" as="targetPoint" />
          </mxGeometry>
        </mxCell>
        <mxCell id="CgnWM67gMF39QZWleoJr-306" value="&lt;font face=&quot;MS Mincho,ＭＳ 明朝&quot; style=&quot;font-size: 48px;&quot;&gt;pmp_resp&lt;/font&gt;" style="edgeLabel;html=1;align=center;verticalAlign=middle;resizable=0;points=[];labelBackgroundColor=default;" parent="CgnWM67gMF39QZWleoJr-305" vertex="1" connectable="0">
          <mxGeometry x="0.2824" y="4" relative="1" as="geometry">
            <mxPoint x="13" y="8" as="offset" />
          </mxGeometry>
        </mxCell>
        <mxCell id="CgnWM67gMF39QZWleoJr-307" value="" style="endArrow=classic;html=1;rounded=0;strokeWidth=4;endFill=1;startArrow=none;startFill=0;endSize=28;targetPerimeterSpacing=0;entryX=0.5;entryY=0;entryDx=0;entryDy=0;" parent="1" target="CgnWM67gMF39QZWleoJr-301" edge="1">
          <mxGeometry width="50" height="50" relative="1" as="geometry">
            <mxPoint x="1181" y="430" as="sourcePoint" />
            <mxPoint x="1180.33" y="605" as="targetPoint" />
          </mxGeometry>
        </mxCell>
        <mxCell id="CgnWM67gMF39QZWleoJr-308" value="&lt;font face=&quot;MS Mincho,ＭＳ 明朝&quot; style=&quot;font-size: 48px;&quot;&gt;read_resp&lt;/font&gt;" style="edgeLabel;html=1;align=center;verticalAlign=middle;resizable=0;points=[];labelBackgroundColor=default;" parent="CgnWM67gMF39QZWleoJr-307" vertex="1" connectable="0">
          <mxGeometry x="0.2824" y="4" relative="1" as="geometry">
            <mxPoint x="-4" y="-39" as="offset" />
          </mxGeometry>
        </mxCell>
        <mxCell id="CgnWM67gMF39QZWleoJr-309" value="" style="endArrow=classic;html=1;rounded=0;strokeWidth=4;endFill=1;startArrow=none;startFill=0;endSize=28;targetPerimeterSpacing=0;entryX=0.5;entryY=1;entryDx=0;entryDy=0;exitX=0.5;exitY=0;exitDx=0;exitDy=0;" parent="1" source="CgnWM67gMF39QZWleoJr-300" target="CgnWM67gMF39QZWleoJr-301" edge="1">
          <mxGeometry width="50" height="50" relative="1" as="geometry">
            <mxPoint x="1181" y="1060" as="sourcePoint" />
            <mxPoint x="1180.21" y="888.97" as="targetPoint" />
          </mxGeometry>
        </mxCell>
        <mxCell id="CgnWM67gMF39QZWleoJr-310" value="&lt;font face=&quot;MS Mincho,ＭＳ 明朝&quot; style=&quot;font-size: 48px;&quot;&gt;s1_mshr_hit&lt;/font&gt;" style="edgeLabel;html=1;align=center;verticalAlign=middle;resizable=0;points=[];labelBackgroundColor=default;" parent="1" vertex="1" connectable="0">
          <mxGeometry x="1181.0015600000002" y="909.9999999999993" as="geometry" />
        </mxCell>
        <mxCell id="l4ZIpHhJFjAhgJdBK-9o-1" value="" style="endArrow=classic;html=1;rounded=0;strokeWidth=4;endFill=1;startArrow=none;startFill=0;endSize=28;targetPerimeterSpacing=0;entryX=-0.085;entryY=0.081;entryDx=0;entryDy=0;exitX=1;exitY=0.5;exitDx=0;exitDy=0;entryPerimeter=0;" parent="1" source="CgnWM67gMF39QZWleoJr-301" target="CgnWM67gMF39QZWleoJr-249" edge="1">
          <mxGeometry width="50" height="50" relative="1" as="geometry">
            <mxPoint x="1320" y="766.25" as="sourcePoint" />
            <mxPoint x="1534.7915600000001" y="766.9499999999998" as="targetPoint" />
          </mxGeometry>
        </mxCell>
        <mxCell id="l4ZIpHhJFjAhgJdBK-9o-2" value="&lt;font face=&quot;MS Mincho, ＭＳ 明朝&quot;&gt;&lt;span style=&quot;font-size: 48px;&quot;&gt;s1_data&lt;/span&gt;&lt;/font&gt;" style="edgeLabel;html=1;align=center;verticalAlign=middle;resizable=0;points=[];labelBackgroundColor=default;" parent="1" vertex="1" connectable="0">
          <mxGeometry x="1550.0033497418622" y="680.0023016136315" as="geometry">
            <mxPoint x="-17" y="-18" as="offset" />
          </mxGeometry>
        </mxCell>
        <mxCell id="l4ZIpHhJFjAhgJdBK-9o-3" value="" style="endArrow=classic;html=1;rounded=0;strokeWidth=4;endFill=1;startArrow=none;startFill=0;endSize=28;targetPerimeterSpacing=0;entryX=1;entryY=0.713;entryDx=0;entryDy=0;jumpStyle=arc;jumpSize=23;entryPerimeter=0;" parent="1" target="CgnWM67gMF39QZWleoJr-301" edge="1">
          <mxGeometry width="50" height="50" relative="1" as="geometry">
            <mxPoint x="2780" y="1958" as="sourcePoint" />
            <mxPoint x="1395.4235600000002" y="809.6199999999999" as="targetPoint" />
            <Array as="points">
              <mxPoint x="2780" y="1800" />
              <mxPoint x="1480" y="1800" />
              <mxPoint x="1480" y="708" />
            </Array>
          </mxGeometry>
        </mxCell>
        <mxCell id="l4ZIpHhJFjAhgJdBK-9o-4" value="&lt;font face=&quot;MS Mincho,ＭＳ 明朝&quot; style=&quot;font-size: 48px;&quot;&gt;fetch_resp&lt;/font&gt;" style="edgeLabel;html=1;align=center;verticalAlign=middle;resizable=0;points=[];labelBackgroundColor=default;" parent="1" vertex="1" connectable="0">
          <mxGeometry x="2781.00156" y="1859.9999999999993" as="geometry" />
        </mxCell>
        <mxCell id="l4ZIpHhJFjAhgJdBK-9o-5" value="" style="endArrow=classic;html=1;rounded=0;strokeWidth=4;endFill=1;startArrow=none;startFill=0;endSize=28;targetPerimeterSpacing=0;entryX=0.5;entryY=1;entryDx=0;entryDy=0;" parent="1" target="CgnWM67gMF39QZWleoJr-260" edge="1">
          <mxGeometry width="50" height="50" relative="1" as="geometry">
            <mxPoint x="2780" y="1800" as="sourcePoint" />
            <mxPoint x="2780.33" y="1570" as="targetPoint" />
          </mxGeometry>
        </mxCell>
        <mxCell id="l4ZIpHhJFjAhgJdBK-9o-7" value="" style="endArrow=classic;html=1;rounded=0;strokeWidth=4;endFill=1;startArrow=none;startFill=0;endSize=28;targetPerimeterSpacing=0;entryX=0;entryY=0.5;entryDx=0;entryDy=0;exitX=0.999;exitY=0.562;exitDx=0;exitDy=0;exitPerimeter=0;" parent="1" source="CgnWM67gMF39QZWleoJr-249" target="CgnWM67gMF39QZWleoJr-259" edge="1">
          <mxGeometry width="50" height="50" relative="1" as="geometry">
            <mxPoint x="1940.8495600000008" y="1235.2350000000004" as="sourcePoint" />
            <mxPoint x="2129.9915600000004" y="896.9299999999995" as="targetPoint" />
          </mxGeometry>
        </mxCell>
        <mxCell id="l4ZIpHhJFjAhgJdBK-9o-8" value="" style="endArrow=classic;html=1;rounded=0;strokeWidth=4;endFill=1;startArrow=none;startFill=0;endSize=28;targetPerimeterSpacing=0;entryX=0.947;entryY=0.001;entryDx=0;entryDy=0;exitX=1;exitY=0.5;exitDx=0;exitDy=0;entryPerimeter=0;" parent="1" source="CgnWM67gMF39QZWleoJr-259" target="CgnWM67gMF39QZWleoJr-238" edge="1">
          <mxGeometry width="50" height="50" relative="1" as="geometry">
            <mxPoint x="3182.5115600000004" y="1139.43" as="sourcePoint" />
            <mxPoint x="3760.91" y="551.4260000000005" as="targetPoint" />
            <Array as="points">
              <mxPoint x="3760.99" y="1237.43" />
            </Array>
          </mxGeometry>
        </mxCell>
        <mxCell id="l4ZIpHhJFjAhgJdBK-9o-9" value="&lt;font face=&quot;MS Mincho,ＭＳ 明朝&quot; style=&quot;font-size: 48px;&quot;&gt;fetch_req&lt;/font&gt;" style="edgeLabel;html=1;align=center;verticalAlign=middle;resizable=0;points=[];labelBackgroundColor=default;" parent="1" vertex="1" connectable="0">
          <mxGeometry x="3759.79156" y="639.9999999999993" as="geometry" />
        </mxCell>
        <mxCell id="l4ZIpHhJFjAhgJdBK-9o-10" value="" style="endArrow=classic;html=1;rounded=0;strokeWidth=4;endFill=1;startArrow=none;startFill=0;endSize=28;targetPerimeterSpacing=0;entryX=-0.048;entryY=0.243;entryDx=0;entryDy=0;entryPerimeter=0;jumpStyle=arc;jumpSize=22;" parent="1" target="CgnWM67gMF39QZWleoJr-249" edge="1">
          <mxGeometry width="50" height="50" relative="1" as="geometry">
            <mxPoint x="1182" y="860.76" as="sourcePoint" />
            <mxPoint x="1870.0015600000006" y="859.9999999999993" as="targetPoint" />
          </mxGeometry>
        </mxCell>
        <mxCell id="l4ZIpHhJFjAhgJdBK-9o-11" value="" style="endArrow=classic;html=1;rounded=0;strokeWidth=4;endFill=1;startArrow=none;startFill=0;endSize=28;entryX=1;entryY=0.5;entryDx=0;entryDy=0;sourcePerimeterSpacing=0;" parent="1" target="CgnWM67gMF39QZWleoJr-300" edge="1">
          <mxGeometry width="50" height="50" relative="1" as="geometry">
            <mxPoint x="1480" y="1072" as="sourcePoint" />
            <mxPoint x="1450" y="1150.5" as="targetPoint" />
          </mxGeometry>
        </mxCell>
        <mxCell id="l4ZIpHhJFjAhgJdBK-9o-12" value="" style="endArrow=classic;html=1;rounded=0;strokeWidth=4;endFill=1;startArrow=none;startFill=0;endSize=28;targetPerimeterSpacing=0;entryX=-0.013;entryY=0.852;entryDx=0;entryDy=0;exitX=1;exitY=0.5;exitDx=0;exitDy=0;jumpStyle=arc;jumpSize=22;entryPerimeter=0;" parent="1" source="CgnWM67gMF39QZWleoJr-298" target="CgnWM67gMF39QZWleoJr-249" edge="1">
          <mxGeometry width="50" height="50" relative="1" as="geometry">
            <mxPoint x="1450" y="1450.5" as="sourcePoint" />
            <mxPoint x="1639.0015600000006" y="1449.9999999999995" as="targetPoint" />
          </mxGeometry>
        </mxCell>
        <mxCell id="l4ZIpHhJFjAhgJdBK-9o-13" value="" style="endArrow=classic;html=1;rounded=0;strokeWidth=4;endFill=1;startArrow=none;startFill=0;endSize=28;entryX=0.958;entryY=0.899;entryDx=0;entryDy=0;sourcePerimeterSpacing=0;exitX=0;exitY=0.5;exitDx=0;exitDy=0;entryPerimeter=0;" parent="1" source="CgnWM67gMF39QZWleoJr-260" target="CgnWM67gMF39QZWleoJr-249" edge="1">
          <mxGeometry width="50" height="50" relative="1" as="geometry">
            <mxPoint x="2068.99" y="1509.53" as="sourcePoint" />
            <mxPoint x="1941.2045600000013" y="1634.5949999999996" as="targetPoint" />
          </mxGeometry>
        </mxCell>
        <mxCell id="l4ZIpHhJFjAhgJdBK-9o-14" value="&lt;font face=&quot;MS Mincho, ＭＳ 明朝&quot;&gt;&lt;span style=&quot;font-size: 48px;&quot;&gt;s2_data&lt;/span&gt;&lt;/font&gt;" style="edgeLabel;html=1;align=center;verticalAlign=middle;resizable=0;points=[];labelBackgroundColor=default;" parent="1" vertex="1" connectable="0">
          <mxGeometry x="2281.003349741862" y="1527.5323016136315" as="geometry">
            <mxPoint y="91" as="offset" />
          </mxGeometry>
        </mxCell>
        <mxCell id="l4ZIpHhJFjAhgJdBK-9o-15" value="" style="endArrow=classic;html=1;rounded=0;strokeWidth=4;endFill=1;startArrow=none;startFill=0;endSize=28;targetPerimeterSpacing=0;entryX=1;entryY=0.688;entryDx=0;entryDy=0;jumpStyle=arc;jumpSize=22;exitX=0.999;exitY=0.77;exitDx=0;exitDy=0;entryPerimeter=0;exitPerimeter=0;" parent="1" edge="1">
          <mxGeometry width="50" height="50" relative="1" as="geometry">
            <mxPoint x="2020.9305600000007" y="1469.4500000000003" as="sourcePoint" />
            <mxPoint x="3970" y="1467.888" as="targetPoint" />
          </mxGeometry>
        </mxCell>
        <mxCell id="l4ZIpHhJFjAhgJdBK-9o-16" value="&lt;font face=&quot;MS Mincho,ＭＳ 明朝&quot; style=&quot;font-size: 48px;&quot;&gt;ifu_resp&lt;/font&gt;" style="edgeLabel;html=1;align=center;verticalAlign=middle;resizable=0;points=[];labelBackgroundColor=default;" parent="1" vertex="1" connectable="0">
          <mxGeometry x="2360.00156" y="1477.9999999999993" as="geometry">
            <mxPoint x="-86" y="-14" as="offset" />
          </mxGeometry>
        </mxCell>
        <mxCell id="l4ZIpHhJFjAhgJdBK-9o-21" value="" style="endArrow=classic;html=1;rounded=0;strokeWidth=4;endFill=1;startArrow=none;startFill=0;endSize=28;targetPerimeterSpacing=0;exitX=1;exitY=0.5;exitDx=0;exitDy=0;entryX=1;entryY=0.5;entryDx=0;entryDy=0;" parent="1" source="l4ZIpHhJFjAhgJdBK-9o-44" target="l4ZIpHhJFjAhgJdBK-9o-55" edge="1">
          <mxGeometry width="50" height="50" relative="1" as="geometry">
            <mxPoint x="3070.9915600000013" y="824.4300000000004" as="sourcePoint" />
            <mxPoint x="3000.99" y="969.43" as="targetPoint" />
            <Array as="points">
              <mxPoint x="3440" y="590" />
              <mxPoint x="3440" y="911" />
            </Array>
          </mxGeometry>
        </mxCell>
        <mxCell id="l4ZIpHhJFjAhgJdBK-9o-22" value="&lt;font face=&quot;MS Mincho,ＭＳ 明朝&quot; style=&quot;font-size: 48px;&quot;&gt;s2_data_corrupt&lt;/font&gt;" style="edgeLabel;html=1;align=center;verticalAlign=middle;resizable=0;points=[];labelBackgroundColor=default;" parent="l4ZIpHhJFjAhgJdBK-9o-21" vertex="1" connectable="0">
          <mxGeometry x="0.2824" y="4" relative="1" as="geometry">
            <mxPoint x="-229" y="-331" as="offset" />
          </mxGeometry>
        </mxCell>
        <mxCell id="l4ZIpHhJFjAhgJdBK-9o-36" value="&lt;font face=&quot;MS Mincho, ＭＳ 明朝&quot;&gt;&lt;span style=&quot;font-size: 62px; text-wrap-mode: nowrap;&quot;&gt;EccCheck&lt;/span&gt;&lt;/font&gt;" style="rounded=1;whiteSpace=wrap;html=1;fillColor=none;strokeWidth=4;shadow=0;glass=0;autosize=0;resizeWidth=0;imageHeight=24;imageAspect=1;perimeter=rectanglePerimeter;arcSize=21;" parent="1" vertex="1">
          <mxGeometry x="970.0015600000002" y="1229.9999999999998" width="422" height="195" as="geometry" />
        </mxCell>
        <mxCell id="l4ZIpHhJFjAhgJdBK-9o-37" value="" style="endArrow=classic;html=1;rounded=0;strokeWidth=4;endFill=1;startArrow=none;startFill=0;endSize=28;targetPerimeterSpacing=0;entryX=0;entryY=0.5;entryDx=0;entryDy=0;exitX=0.999;exitY=0.424;exitDx=0;exitDy=0;exitPerimeter=0;" parent="1" target="l4ZIpHhJFjAhgJdBK-9o-36" edge="1">
          <mxGeometry width="50" height="50" relative="1" as="geometry">
            <mxPoint x="660" y="1326.25" as="sourcePoint" />
            <mxPoint x="850" y="1327.25" as="targetPoint" />
          </mxGeometry>
        </mxCell>
        <mxCell id="l4ZIpHhJFjAhgJdBK-9o-38" value="&lt;font face=&quot;MS Mincho,ＭＳ 明朝&quot; style=&quot;font-size: 48px;&quot;&gt;ptag&lt;/font&gt;&lt;div&gt;&lt;font face=&quot;MS Mincho,ＭＳ 明朝&quot; style=&quot;font-size: 48px;&quot;&gt;meta_code&lt;/font&gt;&lt;/div&gt;" style="edgeLabel;html=1;align=center;verticalAlign=middle;resizable=0;points=[];labelBackgroundColor=default;" parent="1" vertex="1" connectable="0">
          <mxGeometry x="799.9960993652519" y="1310.0026026277521" as="geometry" />
        </mxCell>
        <mxCell id="l4ZIpHhJFjAhgJdBK-9o-39" value="" style="endArrow=classic;html=1;rounded=0;strokeWidth=4;endFill=1;startArrow=none;startFill=0;endSize=28;targetPerimeterSpacing=0;entryX=-0.045;entryY=0.649;entryDx=0;entryDy=0;exitX=1;exitY=0.5;exitDx=0;exitDy=0;jumpStyle=arc;jumpSize=22;entryPerimeter=0;" parent="1" target="CgnWM67gMF39QZWleoJr-249" edge="1">
          <mxGeometry width="50" height="50" relative="1" as="geometry">
            <mxPoint x="1392" y="1340" as="sourcePoint" />
            <mxPoint x="1698" y="1341" as="targetPoint" />
          </mxGeometry>
        </mxCell>
        <mxCell id="l4ZIpHhJFjAhgJdBK-9o-40" value="&lt;div&gt;&lt;font face=&quot;MS Mincho,ＭＳ 明朝&quot; style=&quot;font-size: 48px;&quot;&gt;s1_&lt;/font&gt;&lt;span style=&quot;font-size: 48px; font-family: &amp;quot;MS Mincho&amp;quot;, &amp;quot;ＭＳ 明朝&amp;quot;; background-color: light-dark(#ffffff, var(--ge-dark-color, #121212)); color: light-dark(rgb(0, 0, 0), rgb(255, 255, 255));&quot;&gt;meta_corrupt&lt;/span&gt;&lt;/div&gt;" style="edgeLabel;html=1;align=center;verticalAlign=middle;resizable=0;points=[];labelBackgroundColor=default;" parent="1" vertex="1" connectable="0">
          <mxGeometry x="1700.0040988902529" y="1334.432520130929" as="geometry" />
        </mxCell>
        <mxCell id="l4ZIpHhJFjAhgJdBK-9o-41" value="&lt;font face=&quot;MS Mincho,ＭＳ 明朝&quot; style=&quot;font-size: 48px;&quot;&gt;miss&lt;/font&gt;" style="edgeLabel;html=1;align=center;verticalAlign=middle;resizable=0;points=[];labelBackgroundColor=default;" parent="1" vertex="1" connectable="0">
          <mxGeometry x="2410.00156" y="1507.9999999999993" as="geometry">
            <mxPoint x="-136" y="-293" as="offset" />
          </mxGeometry>
        </mxCell>
        <mxCell id="l4ZIpHhJFjAhgJdBK-9o-44" value="&lt;font face=&quot;MS Mincho, ＭＳ 明朝&quot;&gt;&lt;span style=&quot;font-size: 62px; text-wrap-mode: nowrap;&quot;&gt;EccCheck&lt;/span&gt;&lt;/font&gt;" style="rounded=1;whiteSpace=wrap;html=1;fillColor=none;strokeWidth=4;shadow=0;glass=0;autosize=0;resizeWidth=0;imageHeight=24;imageAspect=1;perimeter=rectanglePerimeter;arcSize=21;" parent="1" vertex="1">
          <mxGeometry x="2569.79156" y="486.9999999999997" width="422" height="195" as="geometry" />
        </mxCell>
        <mxCell id="l4ZIpHhJFjAhgJdBK-9o-45" value="" style="endArrow=classic;html=1;rounded=0;strokeWidth=4;endFill=1;startArrow=none;startFill=0;endSize=28;targetPerimeterSpacing=0;entryX=0;entryY=0.5;entryDx=0;entryDy=0;exitX=0.999;exitY=0.014;exitDx=0;exitDy=0;exitPerimeter=0;" parent="1" source="CgnWM67gMF39QZWleoJr-249" target="l4ZIpHhJFjAhgJdBK-9o-44" edge="1">
          <mxGeometry width="50" height="50" relative="1" as="geometry">
            <mxPoint x="1940.0045600000012" y="585.8299999999998" as="sourcePoint" />
            <mxPoint x="2303.29" y="613.4999999999999" as="targetPoint" />
          </mxGeometry>
        </mxCell>
        <mxCell id="l4ZIpHhJFjAhgJdBK-9o-46" value="&lt;font face=&quot;MS Mincho,ＭＳ 明朝&quot; style=&quot;font-size: 48px;&quot;&gt;data&lt;/font&gt;&lt;div&gt;&lt;font face=&quot;MS Mincho,ＭＳ 明朝&quot; style=&quot;font-size: 48px;&quot;&gt;data_code&lt;/font&gt;&lt;/div&gt;" style="edgeLabel;html=1;align=center;verticalAlign=middle;resizable=0;points=[];labelBackgroundColor=default;" parent="1" vertex="1" connectable="0">
          <mxGeometry x="2281.002455538889" y="577.0023926223797" as="geometry" />
        </mxCell>
        <mxCell id="l4ZIpHhJFjAhgJdBK-9o-48" value="&lt;div&gt;&lt;font face=&quot;MS Mincho,ＭＳ 明朝&quot; style=&quot;font-size: 48px;&quot;&gt;s1_&lt;/font&gt;&lt;span style=&quot;font-size: 48px; font-family: &amp;quot;MS Mincho&amp;quot;, &amp;quot;ＭＳ 明朝&amp;quot;; background-color: light-dark(#ffffff, var(--ge-dark-color, #121212)); color: light-dark(rgb(0, 0, 0), rgb(255, 255, 255));&quot;&gt;exception_out&lt;/span&gt;&lt;/div&gt;" style="edgeLabel;html=1;align=center;verticalAlign=middle;resizable=0;points=[];labelBackgroundColor=default;" parent="1" vertex="1" connectable="0">
          <mxGeometry x="1700.0040988902529" y="1577.502520130929" as="geometry" />
        </mxCell>
        <mxCell id="l4ZIpHhJFjAhgJdBK-9o-50" value="" style="endArrow=classic;html=1;rounded=0;strokeWidth=4;endFill=1;startArrow=none;startFill=0;endSize=28;targetPerimeterSpacing=0;jumpStyle=arc;jumpSize=22;exitX=0.999;exitY=0.291;exitDx=0;exitDy=0;exitPerimeter=0;entryX=0;entryY=0.5;entryDx=0;entryDy=0;" parent="1" source="CgnWM67gMF39QZWleoJr-249" target="l4ZIpHhJFjAhgJdBK-9o-55" edge="1">
          <mxGeometry width="50" height="50" relative="1" as="geometry">
            <mxPoint x="1939.99756" y="914.3650000000002" as="sourcePoint" />
            <mxPoint x="2281.9924165138145" y="494.4700000000002" as="targetPoint" />
            <Array as="points">
              <mxPoint x="2110.99" y="914" />
            </Array>
          </mxGeometry>
        </mxCell>
        <mxCell id="l4ZIpHhJFjAhgJdBK-9o-49" value="&lt;div&gt;&lt;font face=&quot;MS Mincho,ＭＳ 明朝&quot; style=&quot;font-size: 48px;&quot;&gt;s2_&lt;/font&gt;&lt;span style=&quot;font-size: 48px; font-family: &amp;quot;MS Mincho&amp;quot;, &amp;quot;ＭＳ 明朝&amp;quot;; background-color: light-dark(#ffffff, var(--ge-dark-color, #121212)); color: light-dark(rgb(0, 0, 0), rgb(255, 255, 255));&quot;&gt;meta_corrupt&lt;/span&gt;&lt;/div&gt;" style="edgeLabel;html=1;align=center;verticalAlign=middle;resizable=0;points=[];labelBackgroundColor=default;" parent="1" vertex="1" connectable="0">
          <mxGeometry x="2281.004098890253" y="911.502520130929" as="geometry" />
        </mxCell>
        <mxCell id="l4ZIpHhJFjAhgJdBK-9o-52" value="&lt;font face=&quot;MS Mincho, ＭＳ 明朝&quot;&gt;&lt;span style=&quot;font-size: 62px; text-wrap-mode: nowrap;&quot;&gt;ErrorReport&lt;/span&gt;&lt;/font&gt;" style="rounded=1;whiteSpace=wrap;html=1;fillColor=none;strokeWidth=4;shadow=0;glass=0;autosize=0;resizeWidth=0;imageHeight=24;imageAspect=1;perimeter=rectanglePerimeter;arcSize=21;" parent="1" vertex="1">
          <mxGeometry x="3280.99156" y="1539.5299999999997" width="422" height="195" as="geometry" />
        </mxCell>
        <mxCell id="l4ZIpHhJFjAhgJdBK-9o-53" value="" style="endArrow=classic;html=1;rounded=0;strokeWidth=4;endFill=1;startArrow=none;startFill=0;endSize=28;targetPerimeterSpacing=0;entryX=0.25;entryY=0;entryDx=0;entryDy=0;jumpStyle=arc;jumpSize=22;" parent="1" edge="1">
          <mxGeometry width="50" height="50" relative="1" as="geometry">
            <mxPoint x="3440" y="911.5" as="sourcePoint" />
            <mxPoint x="3440.4915600000004" y="1541.0299999999997" as="targetPoint" />
          </mxGeometry>
        </mxCell>
        <mxCell id="l4ZIpHhJFjAhgJdBK-9o-55" value="&lt;font face=&quot;MS Mincho, ＭＳ 明朝&quot;&gt;&lt;span style=&quot;font-size: 62px; text-wrap-mode: nowrap;&quot;&gt;Refetch&lt;/span&gt;&lt;/font&gt;" style="rounded=1;whiteSpace=wrap;html=1;fillColor=none;strokeWidth=4;shadow=0;glass=0;autosize=0;resizeWidth=0;imageHeight=24;imageAspect=1;perimeter=rectanglePerimeter;arcSize=21;" parent="1" vertex="1">
          <mxGeometry x="2570.99156" y="813.9999999999998" width="422" height="195" as="geometry" />
        </mxCell>
        <mxCell id="l4ZIpHhJFjAhgJdBK-9o-56" value="" style="endArrow=classic;html=1;rounded=0;strokeWidth=4;endFill=1;startArrow=none;startFill=0;endSize=28;targetPerimeterSpacing=0;entryX=0.5;entryY=0;entryDx=0;entryDy=0;" parent="1" target="CgnWM67gMF39QZWleoJr-259" edge="1">
          <mxGeometry width="50" height="50" relative="1" as="geometry">
            <mxPoint x="2782" y="1010" as="sourcePoint" />
            <mxPoint x="2782.5" y="1097.45" as="targetPoint" />
          </mxGeometry>
        </mxCell>
        <mxCell id="l4ZIpHhJFjAhgJdBK-9o-51" value="&lt;font face=&quot;MS Mincho,ＭＳ 明朝&quot; style=&quot;font-size: 48px;&quot;&gt;refetch&lt;/font&gt;" style="edgeLabel;html=1;align=center;verticalAlign=middle;resizable=0;points=[];labelBackgroundColor=default;" parent="1" vertex="1" connectable="0">
          <mxGeometry x="2770.99156" y="1069.9999999999995" as="geometry">
            <mxPoint x="12" y="-10" as="offset" />
          </mxGeometry>
        </mxCell>
        <mxCell id="l4ZIpHhJFjAhgJdBK-9o-58" value="z" style="endArrow=classic;html=1;rounded=0;strokeWidth=4;endFill=1;startArrow=none;startFill=0;endSize=28;targetPerimeterSpacing=0;entryX=0.75;entryY=0;entryDx=0;entryDy=0;jumpStyle=arc;jumpSize=22;" parent="1" edge="1">
          <mxGeometry width="50" height="50" relative="1" as="geometry">
            <mxPoint x="2480" y="910" as="sourcePoint" />
            <mxPoint x="3557.4915600000004" y="1539.5299999999997" as="targetPoint" />
            <Array as="points">
              <mxPoint x="2480" y="730" />
              <mxPoint x="3557" y="730" />
            </Array>
          </mxGeometry>
        </mxCell>
        <mxCell id="l4ZIpHhJFjAhgJdBK-9o-60" value="" style="endArrow=classic;html=1;rounded=0;strokeWidth=4;endFill=1;startArrow=none;startFill=0;endSize=28;targetPerimeterSpacing=0;entryX=0.5;entryY=1;entryDx=0;entryDy=0;" parent="1" target="l4ZIpHhJFjAhgJdBK-9o-52" edge="1">
          <mxGeometry width="50" height="50" relative="1" as="geometry">
            <mxPoint x="2780" y="1800" as="sourcePoint" />
            <mxPoint x="3271" y="1800" as="targetPoint" />
            <Array as="points">
              <mxPoint x="3120" y="1800" />
              <mxPoint x="3492" y="1800" />
            </Array>
          </mxGeometry>
        </mxCell>
        <mxCell id="l4ZIpHhJFjAhgJdBK-9o-62" value="&lt;div&gt;&lt;span style=&quot;font-size: 48px; font-family: &amp;quot;MS Mincho&amp;quot;, &amp;quot;ＭＳ 明朝&amp;quot;; background-color: light-dark(#ffffff, var(--ge-dark-color, #121212)); color: light-dark(rgb(0, 0, 0), rgb(255, 255, 255));&quot;&gt;l2_corrupt&lt;/span&gt;&lt;/div&gt;" style="edgeLabel;html=1;align=center;verticalAlign=middle;resizable=0;points=[];labelBackgroundColor=default;" parent="1" vertex="1" connectable="0">
          <mxGeometry x="3170.004098890253" y="1800.002520130929" as="geometry" />
        </mxCell>
        <mxCell id="l4ZIpHhJFjAhgJdBK-9o-63" value="" style="endArrow=classic;html=1;rounded=0;strokeWidth=4;endFill=1;startArrow=none;startFill=0;endSize=28;targetPerimeterSpacing=0;exitX=1;exitY=0.5;exitDx=0;exitDy=0;" parent="1" source="l4ZIpHhJFjAhgJdBK-9o-52" edge="1">
          <mxGeometry width="50" height="50" relative="1" as="geometry">
            <mxPoint x="3759.789560000001" y="1636.0250000000003" as="sourcePoint" />
            <mxPoint x="3970" y="1638" as="targetPoint" />
          </mxGeometry>
        </mxCell>
        <mxCell id="l4ZIpHhJFjAhgJdBK-9o-64" value="&lt;font face=&quot;MS Mincho,ＭＳ 明朝&quot; style=&quot;font-size: 48px;&quot;&gt;errors&lt;/font&gt;" style="edgeLabel;html=1;align=center;verticalAlign=middle;resizable=0;points=[];labelBackgroundColor=default;" parent="1" vertex="1" connectable="0">
          <mxGeometry x="3900.00156" y="1649.999999999999" as="geometry">
            <mxPoint x="-86" y="-14" as="offset" />
          </mxGeometry>
        </mxCell>
        <mxCell id="mKufYJRjbWzxz2T2hlCF-1" value="&lt;div&gt;&lt;font style=&quot;color: rgb(0, 0, 0);&quot;&gt;&lt;font face=&quot;MS Mincho,ＭＳ 明朝&quot; style=&quot;font-size: 48px;&quot;&gt;meta_&lt;/font&gt;&lt;span style=&quot;font-size: 48px; font-family: &amp;quot;MS Mincho&amp;quot;, &amp;quot;ＭＳ 明朝&amp;quot;; background-color: light-dark(#ffffff, var(--ge-dark-color, #121212));&quot;&gt;info&lt;/span&gt;&lt;/font&gt;&lt;/div&gt;" style="edgeLabel;html=1;align=center;verticalAlign=middle;resizable=0;points=[];labelBackgroundColor=default;" parent="1" vertex="1" connectable="0">
          <mxGeometry x="280.0033497418623" y="300.0023016136315" as="geometry">
            <mxPoint x="152" y="1106" as="offset" />
          </mxGeometry>
        </mxCell>
        <mxCell id="mKufYJRjbWzxz2T2hlCF-2" value="&lt;font face=&quot;MS Mincho,ＭＳ 明朝&quot; style=&quot;font-size: 48px; color: rgb(0, 0, 0);&quot;&gt;dequeue&lt;/font&gt;" style="edgeLabel;html=1;align=center;verticalAlign=middle;resizable=0;points=[];labelBackgroundColor=default;" parent="1" vertex="1" connectable="0">
          <mxGeometry x="300.0045443413028" y="1849.9966995302113" as="geometry">
            <mxPoint x="3" y="4" as="offset" />
          </mxGeometry>
        </mxCell>
        <mxCell id="CgnWM67gMF39QZWleoJr-303" value="&lt;font face=&quot;MS Mincho,ＭＳ 明朝&quot; style=&quot;font-size: 48px;&quot;&gt;pmp_req&lt;/font&gt;" style="edgeLabel;html=1;align=center;verticalAlign=middle;resizable=0;points=[];labelBackgroundColor=default;" parent="1" vertex="1" connectable="0">
          <mxGeometry x="880.00156" y="1779.9999999999993" as="geometry" />
        </mxCell>
        <mxCell id="mKufYJRjbWzxz2T2hlCF-3" value="" style="endArrow=classic;html=1;rounded=0;strokeWidth=4;endFill=1;startArrow=none;startFill=0;endSize=28;exitX=1;exitY=0.936;exitDx=0;exitDy=0;exitPerimeter=0;sourcePerimeterSpacing=0;jumpStyle=arc;jumpSize=22;entryX=0.229;entryY=1.001;entryDx=0;entryDy=0;entryPerimeter=0;strokeColor=#000000;" parent="1" edge="1">
          <mxGeometry width="50" height="50" relative="1" as="geometry">
            <mxPoint x="660" y="710.0000000000005" as="sourcePoint" />
            <mxPoint x="878" y="430.00000000000045" as="targetPoint" />
            <Array as="points">
              <mxPoint x="880" y="708.0000000000005" />
            </Array>
          </mxGeometry>
        </mxCell>
        <mxCell id="mKufYJRjbWzxz2T2hlCF-4" value="&lt;font face=&quot;MS Mincho,ＭＳ 明朝&quot; style=&quot;font-size: 48px; color: rgb(0, 0, 0);&quot;&gt;replacer_touch&lt;/font&gt;" style="edgeLabel;html=1;align=center;verticalAlign=middle;resizable=0;points=[];labelBackgroundColor=default;" parent="1" vertex="1" connectable="0">
          <mxGeometry x="870.00156" y="529.9999999999993" as="geometry" />
        </mxCell>
      </root>
    </mxGraphModel>
  </diagram>
</mxfile>
